<mxfile host="app.diagrams.net" modified="2023-08-26T06:27:40.449Z" agent="Mozilla/5.0 (Macintosh; Intel Mac OS X 10_15_7) AppleWebKit/537.36 (KHTML, like Gecko) Chrome/116.0.0.0 Safari/537.36 Edg/116.0.1938.54" etag="-Lhmie31DkT6ybG5U4FG" version="21.6.9" type="device">
  <diagram name="第 1 页" id="rVXqHKtSRqtbMVavCmj6">
    <mxGraphModel dx="1272" dy="864" grid="1" gridSize="10" guides="1" tooltips="1" connect="1" arrows="1" fold="1" page="1" pageScale="1" pageWidth="827" pageHeight="1169" math="0" shadow="0">
      <root>
        <mxCell id="0" />
        <mxCell id="1" parent="0" />
        <mxCell id="wM9v9xWdgRVTSgD_5sfv-20" style="edgeStyle=orthogonalEdgeStyle;rounded=0;orthogonalLoop=1;jettySize=auto;html=1;exitX=0.25;exitY=0;exitDx=0;exitDy=0;entryX=0.06;entryY=0.964;entryDx=0;entryDy=0;entryPerimeter=0;dashed=1;" edge="1" parent="1" source="wM9v9xWdgRVTSgD_5sfv-1" target="wM9v9xWdgRVTSgD_5sfv-19">
          <mxGeometry relative="1" as="geometry" />
        </mxCell>
        <mxCell id="wM9v9xWdgRVTSgD_5sfv-21" style="edgeStyle=orthogonalEdgeStyle;rounded=0;orthogonalLoop=1;jettySize=auto;html=1;exitX=0.5;exitY=0;exitDx=0;exitDy=0;entryX=0.353;entryY=0.994;entryDx=0;entryDy=0;dashed=1;entryPerimeter=0;" edge="1" parent="1" source="wM9v9xWdgRVTSgD_5sfv-1" target="wM9v9xWdgRVTSgD_5sfv-19">
          <mxGeometry relative="1" as="geometry" />
        </mxCell>
        <mxCell id="wM9v9xWdgRVTSgD_5sfv-22" style="edgeStyle=orthogonalEdgeStyle;rounded=0;orthogonalLoop=1;jettySize=auto;html=1;exitX=0.75;exitY=0;exitDx=0;exitDy=0;dashed=1;" edge="1" parent="1" source="wM9v9xWdgRVTSgD_5sfv-1" target="wM9v9xWdgRVTSgD_5sfv-19">
          <mxGeometry relative="1" as="geometry">
            <Array as="points">
              <mxPoint x="240" y="290" />
              <mxPoint x="436" y="290" />
            </Array>
          </mxGeometry>
        </mxCell>
        <mxCell id="wM9v9xWdgRVTSgD_5sfv-1" value="Partition0" style="rounded=0;whiteSpace=wrap;html=1;fillColor=#d5e8d4;strokeColor=#82b366;" vertex="1" parent="1">
          <mxGeometry x="150" y="340" width="120" height="60" as="geometry" />
        </mxCell>
        <mxCell id="wM9v9xWdgRVTSgD_5sfv-2" value="Partition1" style="rounded=0;whiteSpace=wrap;html=1;" vertex="1" parent="1">
          <mxGeometry x="270" y="340" width="120" height="60" as="geometry" />
        </mxCell>
        <mxCell id="wM9v9xWdgRVTSgD_5sfv-3" value="..." style="rounded=0;whiteSpace=wrap;html=1;" vertex="1" parent="1">
          <mxGeometry x="390" y="340" width="120" height="60" as="geometry" />
        </mxCell>
        <mxCell id="wM9v9xWdgRVTSgD_5sfv-4" value="Partition&lt;b&gt;N&lt;/b&gt;" style="rounded=0;whiteSpace=wrap;html=1;" vertex="1" parent="1">
          <mxGeometry x="510" y="340" width="120" height="60" as="geometry" />
        </mxCell>
        <mxCell id="wM9v9xWdgRVTSgD_5sfv-6" value="_row_indexes" style="text;html=1;strokeColor=none;fillColor=#dae8fc;align=center;verticalAlign=middle;whiteSpace=wrap;rounded=0;" vertex="1" parent="1">
          <mxGeometry x="50" y="356" width="80" height="30" as="geometry" />
        </mxCell>
        <mxCell id="wM9v9xWdgRVTSgD_5sfv-12" style="edgeStyle=orthogonalEdgeStyle;rounded=0;orthogonalLoop=1;jettySize=auto;html=1;exitX=0.5;exitY=0;exitDx=0;exitDy=0;entryX=0;entryY=1;entryDx=0;entryDy=0;" edge="1" parent="1" source="wM9v9xWdgRVTSgD_5sfv-9" target="wM9v9xWdgRVTSgD_5sfv-1">
          <mxGeometry relative="1" as="geometry">
            <Array as="points">
              <mxPoint x="345" y="500" />
              <mxPoint x="150" y="500" />
            </Array>
          </mxGeometry>
        </mxCell>
        <mxCell id="wM9v9xWdgRVTSgD_5sfv-9" value="offset0" style="rounded=0;whiteSpace=wrap;html=1;fillColor=#ffe6cc;strokeColor=#d79b00;" vertex="1" parent="1">
          <mxGeometry x="320" y="560" width="50" height="40" as="geometry" />
        </mxCell>
        <mxCell id="wM9v9xWdgRVTSgD_5sfv-16" style="edgeStyle=orthogonalEdgeStyle;rounded=0;orthogonalLoop=1;jettySize=auto;html=1;exitX=0.5;exitY=0;exitDx=0;exitDy=0;entryX=0;entryY=1;entryDx=0;entryDy=0;" edge="1" parent="1" source="wM9v9xWdgRVTSgD_5sfv-10" target="wM9v9xWdgRVTSgD_5sfv-2">
          <mxGeometry relative="1" as="geometry" />
        </mxCell>
        <mxCell id="wM9v9xWdgRVTSgD_5sfv-10" value="offse1" style="rounded=0;whiteSpace=wrap;html=1;fillColor=#ffe6cc;strokeColor=#d79b00;" vertex="1" parent="1">
          <mxGeometry x="370" y="560" width="50" height="40" as="geometry" />
        </mxCell>
        <mxCell id="wM9v9xWdgRVTSgD_5sfv-11" value="..." style="rounded=0;whiteSpace=wrap;html=1;fillColor=#ffe6cc;strokeColor=#d79b00;" vertex="1" parent="1">
          <mxGeometry x="420" y="560" width="50" height="40" as="geometry" />
        </mxCell>
        <mxCell id="wM9v9xWdgRVTSgD_5sfv-17" style="edgeStyle=orthogonalEdgeStyle;rounded=0;orthogonalLoop=1;jettySize=auto;html=1;exitX=0.5;exitY=0;exitDx=0;exitDy=0;entryX=0;entryY=1;entryDx=0;entryDy=0;" edge="1" parent="1" source="wM9v9xWdgRVTSgD_5sfv-14" target="wM9v9xWdgRVTSgD_5sfv-4">
          <mxGeometry relative="1" as="geometry">
            <Array as="points">
              <mxPoint x="510" y="560" />
            </Array>
          </mxGeometry>
        </mxCell>
        <mxCell id="wM9v9xWdgRVTSgD_5sfv-14" value="offset&lt;b&gt;N&lt;/b&gt;" style="rounded=0;whiteSpace=wrap;html=1;fillColor=#ffe6cc;strokeColor=#d79b00;" vertex="1" parent="1">
          <mxGeometry x="470" y="560" width="50" height="40" as="geometry" />
        </mxCell>
        <mxCell id="wM9v9xWdgRVTSgD_5sfv-18" value="channel_row_idx_start_points" style="text;html=1;strokeColor=none;fillColor=#dae8fc;align=center;verticalAlign=middle;whiteSpace=wrap;rounded=0;" vertex="1" parent="1">
          <mxGeometry x="50" y="570" width="190" height="30" as="geometry" />
        </mxCell>
        <mxCell id="wM9v9xWdgRVTSgD_5sfv-19" value="Chunk" style="rounded=0;whiteSpace=wrap;html=1;fillColor=#e1d5e7;strokeColor=#9673a6;" vertex="1" parent="1">
          <mxGeometry x="151" y="150" width="480" height="60" as="geometry" />
        </mxCell>
      </root>
    </mxGraphModel>
  </diagram>
</mxfile>
